<svg width="24" height="25" viewBox="0 0 24 25" fill="none" xmlns="http://www.w3.org/2000/svg">
<g clip-path="url(#clip0_1_1491)">
<path d="M12 0.5C5.37321 0.5 0 5.87321 0 12.5C0 19.1268 5.37321 24.5 12 24.5C18.6268 24.5 24 19.1268 24 12.5C24 5.87321 18.6268 0.5 12 0.5ZM12 22.4643C6.49821 22.4643 2.03571 18.0018 2.03571 12.5C2.03571 6.99821 6.49821 2.53571 12 2.53571C17.5018 2.53571 21.9643 6.99821 21.9643 12.5C21.9643 18.0018 17.5018 22.4643 12 22.4643ZM12.15 8.19554C13.5696 8.19554 14.5339 9.10089 14.6411 10.4295C14.6491 10.542 14.7429 10.6277 14.8554 10.6277H16.3741C16.4437 10.6277 16.5 10.5714 16.5 10.5018C16.5 8.17946 14.6679 6.55357 12.142 6.55357C9.19821 6.55357 7.5 8.54107 7.5 11.825V13.2259C7.5 16.4857 9.19821 18.4464 12.142 18.4464C14.6598 18.4464 16.5 16.8714 16.5 14.6589C16.5 14.5893 16.4437 14.533 16.3741 14.533H14.8527C14.7402 14.533 14.6491 14.6188 14.6384 14.7286C14.5259 15.9634 13.5643 16.8125 12.1473 16.8125C10.3982 16.8125 9.4125 15.5295 9.4125 13.2339V11.825C9.41518 9.49464 10.4036 8.19554 12.15 8.19554V8.19554Z" fill="#2C3E50"/>
</g>
<defs>
<clipPath id="clip0_1_1491">
<rect width="24" height="24" fill="white" transform="translate(0 0.5)"/>
</clipPath>
</defs>
</svg>
