<svg width="25" height="24" viewBox="0 0 25 24" fill="none" xmlns="http://www.w3.org/2000/svg">
<path d="M22.3576 1.28326H2.64328C2.16917 1.28326 1.78613 1.6663 1.78613 2.14041V21.8547C1.78613 22.3288 2.16917 22.7118 2.64328 22.7118H22.3576C22.8317 22.7118 23.2147 22.3288 23.2147 21.8547V2.14041C23.2147 1.6663 22.8317 1.28326 22.3576 1.28326ZM21.5004 20.9976H16.5692V14.4136H19.3549L19.7727 11.1806H16.5692V9.11541C16.5692 8.17791 16.829 7.54041 18.171 7.54041H19.8826V4.64755C19.5852 4.60737 18.5701 4.51898 17.3861 4.51898C14.9165 4.51898 13.2263 6.02701 13.2263 8.79398V11.1779H10.4352V14.4109H13.229V20.9976H3.50042V2.99755H21.5004V20.9976Z" fill="#2C3E50"/>
</svg>
