<svg width="121" height="41" viewBox="0 0 121 41" fill="none" xmlns="http://www.w3.org/2000/svg">
<path d="M117.167 10.5C117.167 8.66669 115.667 7.16669 113.833 7.16669H87.1667C85.3333 7.16669 83.8333 8.66669 83.8333 10.5V30.5C83.8333 32.3334 85.3333 33.8334 87.1667 33.8334H113.833C115.667 33.8334 117.167 32.3334 117.167 30.5V10.5ZM113.833 10.5L100.5 18.8334L87.1667 10.5H113.833ZM113.833 30.5H87.1667V13.8334L100.5 22.1667L113.833 13.8334V30.5Z" fill="white"/>
<path d="M60.5017 15.5C59.1756 15.5 57.9038 16.0268 56.9661 16.9644C56.0284 17.9021 55.5017 19.1739 55.5017 20.5C55.5017 21.8261 56.0284 23.0978 56.9661 24.0355C57.9038 24.9732 59.1756 25.5 60.5017 25.5C61.8277 25.5 63.0995 24.9732 64.0372 24.0355C64.9749 23.0978 65.5017 21.8261 65.5017 20.5C65.5017 19.1739 64.9749 17.9021 64.0372 16.9644C63.0995 16.0268 61.8277 15.5 60.5017 15.5ZM60.5017 12.1666C62.7118 12.1666 64.8314 13.0446 66.3942 14.6074C67.957 16.1702 68.835 18.2898 68.835 20.5C68.835 22.7101 67.957 24.8297 66.3942 26.3925C64.8314 27.9553 62.7118 28.8333 60.5017 28.8333C58.2915 28.8333 56.1719 27.9553 54.6091 26.3925C53.0463 24.8297 52.1683 22.7101 52.1683 20.5C52.1683 18.2898 53.0463 16.1702 54.6091 14.6074C56.1719 13.0446 58.2915 12.1666 60.5017 12.1666ZM71.335 11.75C71.335 12.3025 71.1155 12.8324 70.7248 13.2231C70.3341 13.6138 69.8042 13.8333 69.2517 13.8333C68.6991 13.8333 68.1692 13.6138 67.7785 13.2231C67.3878 12.8324 67.1683 12.3025 67.1683 11.75C67.1683 11.1974 67.3878 10.6675 67.7785 10.2768C68.1692 9.88614 68.6991 9.66665 69.2517 9.66665C69.8042 9.66665 70.3341 9.88614 70.7248 10.2768C71.1155 10.6675 71.335 11.1974 71.335 11.75ZM60.5017 7.16665C56.3783 7.16665 55.705 7.17831 53.7867 7.26331C52.48 7.32498 51.6033 7.49998 50.79 7.81665C50.1094 8.06654 49.494 8.46708 48.99 8.98831C48.4683 9.49231 48.0673 10.1076 47.8167 10.7883C47.5 11.605 47.325 12.48 47.265 13.785C47.1783 15.625 47.1667 16.2683 47.1667 20.5C47.1667 24.625 47.1783 25.2966 47.2633 27.215C47.325 28.52 47.5 29.3983 47.815 30.21C48.0983 30.935 48.4317 31.4566 48.985 32.01C49.5467 32.57 50.0683 32.905 50.785 33.1816C51.6083 33.5 52.485 33.6766 53.785 33.7366C55.625 33.8233 56.2683 33.8333 60.5 33.8333C64.625 33.8333 65.2967 33.8216 67.215 33.7366C68.5183 33.675 69.395 33.5 70.21 33.185C70.89 32.9339 71.5051 32.5335 72.01 32.0133C72.5717 31.4533 72.9067 30.9316 73.1833 30.2133C73.5 29.3933 73.6767 28.5166 73.7367 27.2133C73.8233 25.375 73.8333 24.73 73.8333 20.5C73.8333 16.3766 73.8217 15.7033 73.7367 13.785C73.675 12.4816 73.4983 11.6016 73.1833 10.7883C72.9321 10.1083 72.5317 9.49328 72.0117 8.98831C71.5079 8.46639 70.8925 8.06526 70.2117 7.81498C69.395 7.49831 68.5183 7.32331 67.215 7.26331C65.3767 7.17665 64.7333 7.16665 60.5 7.16665M60.5 3.83331C65.0283 3.83331 65.5933 3.84998 67.3717 3.93331C69.145 4.01665 70.355 4.29498 71.4167 4.70831C72.5167 5.13165 73.4433 5.70498 74.37 6.62998C75.2175 7.46314 75.8733 8.47096 76.2917 9.58331C76.7033 10.645 76.9833 11.855 77.0667 13.63C77.145 15.4066 77.1667 15.9716 77.1667 20.5C77.1667 25.0283 77.15 25.5933 77.0667 27.37C76.9833 29.145 76.7033 30.3533 76.2917 31.4166C75.8744 32.5296 75.2185 33.5376 74.37 34.37C73.5366 35.2172 72.5288 35.8729 71.4167 36.2916C70.355 36.7033 69.145 36.9833 67.3717 37.0666C65.5933 37.145 65.0283 37.1666 60.5 37.1666C55.9717 37.1666 55.4067 37.15 53.6283 37.0666C51.855 36.9833 50.6467 36.7033 49.5833 36.2916C48.4705 35.8741 47.4625 35.2182 46.63 34.37C45.7824 33.5369 45.1266 32.5291 44.7083 31.4166C44.295 30.355 44.0167 29.145 43.9333 27.37C43.8533 25.5933 43.8333 25.0283 43.8333 20.5C43.8333 15.9716 43.85 15.4066 43.9333 13.63C44.0167 11.855 44.295 10.6466 44.7083 9.58331C45.1254 8.47028 45.7813 7.46218 46.63 6.62998C47.4628 5.78203 48.4707 5.1262 49.5833 4.70831C50.645 4.29498 51.8533 4.01665 53.6283 3.93331C55.4083 3.85498 55.9733 3.83331 60.5017 3.83331" fill="white"/>
<g clip-path="url(#clip0_1_1494)">
<path fill-rule="evenodd" clip-rule="evenodd" d="M7.16667 20.5C7.16691 17.9341 7.90752 15.4227 9.29965 13.2673C10.6918 11.1118 12.6763 9.40389 15.015 8.34834C17.3538 7.29278 19.9474 6.93449 22.4847 7.31644C25.0221 7.69838 27.3953 8.80435 29.3196 10.5016C31.244 12.1989 32.6377 14.4154 33.3336 16.8852C34.0295 19.3549 33.998 21.973 33.2428 24.4253C32.4877 26.8775 31.041 29.0598 29.0763 30.7103C27.1116 32.3607 24.7125 33.4092 22.1667 33.73V23.8333H25.5C25.942 23.8333 26.3659 23.6577 26.6785 23.3452C26.9911 23.0326 27.1667 22.6087 27.1667 22.1666C27.1667 21.7246 26.9911 21.3007 26.6785 20.9881C26.3659 20.6756 25.942 20.5 25.5 20.5H22.1667V17.1666C22.1667 16.7246 22.3423 16.3007 22.6548 15.9881C22.9674 15.6756 23.3913 15.5 23.8333 15.5H24.6667C25.1087 15.5 25.5326 15.3244 25.8452 15.0118C26.1577 14.6993 26.3333 14.2753 26.3333 13.8333C26.3333 13.3913 26.1577 12.9674 25.8452 12.6548C25.5326 12.3422 25.1087 12.1666 24.6667 12.1666H23.8333C22.5073 12.1666 21.2355 12.6934 20.2978 13.6311C19.3601 14.5688 18.8333 15.8406 18.8333 17.1666V20.5H15.5C15.058 20.5 14.6341 20.6756 14.3215 20.9881C14.0089 21.3007 13.8333 21.7246 13.8333 22.1666C13.8333 22.6087 14.0089 23.0326 14.3215 23.3452C14.6341 23.6577 15.058 23.8333 15.5 23.8333H18.8333V33.73C15.6112 33.3237 12.648 31.7554 10.5 29.3196C8.35198 26.8837 7.16672 23.7477 7.16667 20.5ZM20.5 37.1666C29.705 37.1666 37.1667 29.705 37.1667 20.5C37.1667 11.295 29.705 3.83331 20.5 3.83331C11.295 3.83331 3.83333 11.295 3.83333 20.5C3.83333 29.705 11.295 37.1666 20.5 37.1666Z" fill="white"/>
</g>
<defs>
<clipPath id="clip0_1_1494">
<rect width="40" height="40" fill="white" transform="translate(0.5 0.5)"/>
</clipPath>
</defs>
</svg>
