<svg width="25" height="24" viewBox="0 0 25 24" fill="none" xmlns="http://www.w3.org/2000/svg">
<path d="M12.4993 6.50248C9.45911 6.50248 7.00554 8.95605 7.00554 11.9962C7.00554 15.0364 9.45911 17.49 12.4993 17.49C15.5395 17.49 17.993 15.0364 17.993 11.9962C17.993 8.95605 15.5395 6.50248 12.4993 6.50248ZM12.4993 15.5668C10.5332 15.5668 8.92876 13.9623 8.92876 11.9962C8.92876 10.0302 10.5332 8.4257 12.4993 8.4257C14.4654 8.4257 16.0698 10.0302 16.0698 11.9962C16.0698 13.9623 14.4654 15.5668 12.4993 15.5668ZM18.218 4.99712C17.5082 4.99712 16.935 5.57034 16.935 6.28016C16.935 6.98998 17.5082 7.5632 18.218 7.5632C18.9279 7.5632 19.5011 6.99266 19.5011 6.28016C19.5013 6.11161 19.4682 5.94467 19.4038 5.78891C19.3394 5.63315 19.2449 5.49163 19.1258 5.37244C19.0066 5.25326 18.8651 5.15876 18.7093 5.09436C18.5535 5.02995 18.3866 4.99691 18.218 4.99712V4.99712ZM23.2082 11.9962C23.2082 10.5177 23.2216 9.05248 23.1386 7.57659C23.0555 5.8623 22.6645 4.34087 21.4109 3.0873C20.1547 1.83105 18.6359 1.44266 16.9216 1.35962C15.443 1.27659 13.9779 1.28998 12.502 1.28998C11.0234 1.28998 9.55822 1.27659 8.08233 1.35962C6.36804 1.44266 4.84661 1.83373 3.59304 3.0873C2.33679 4.34355 1.9484 5.8623 1.86536 7.57659C1.78233 9.05516 1.79572 10.5203 1.79572 11.9962C1.79572 13.4721 1.78233 14.94 1.86536 16.4159C1.9484 18.1302 2.33947 19.6516 3.59304 20.9052C4.84929 22.1614 6.36804 22.5498 8.08233 22.6328C9.5609 22.7159 11.0261 22.7025 12.502 22.7025C13.9805 22.7025 15.4457 22.7159 16.9216 22.6328C18.6359 22.5498 20.1573 22.1587 21.4109 20.9052C22.6672 19.6489 23.0555 18.1302 23.1386 16.4159C23.2243 14.94 23.2082 13.4748 23.2082 11.9962V11.9962ZM20.8511 18.3123C20.6555 18.7998 20.4198 19.1641 20.0421 19.5391C19.6645 19.9168 19.3029 20.1525 18.8154 20.348C17.4064 20.9078 14.0609 20.7819 12.4993 20.7819C10.9377 20.7819 7.58947 20.9078 6.18054 20.3507C5.69304 20.1552 5.32875 19.9194 4.95375 19.5418C4.57608 19.1641 4.34036 18.8025 4.14483 18.315C3.58768 16.9034 3.71358 13.5578 3.71358 11.9962C3.71358 10.4346 3.58768 7.08641 4.14483 5.67748C4.34036 5.18998 4.57608 4.8257 4.95375 4.4507C5.33143 4.0757 5.69304 3.8373 6.18054 3.64177C7.58947 3.08462 10.9377 3.21052 12.4993 3.21052C14.0609 3.21052 17.4091 3.08462 18.818 3.64177C19.3055 3.8373 19.6698 4.07302 20.0448 4.4507C20.4225 4.82837 20.6582 5.18998 20.8538 5.67748C21.4109 7.08641 21.285 10.4346 21.285 11.9962C21.285 13.5578 21.4109 16.9034 20.8511 18.3123Z" fill="#2C3E50"/>
</svg>
