<svg width="25" height="24" viewBox="0 0 25 24" fill="none" xmlns="http://www.w3.org/2000/svg">
<g clip-path="url(#clip0_1_1507)">
<path d="M23.6429 2.56653H1.35714C0.883036 2.56653 0.5 2.94956 0.5 3.42367V20.5665C0.5 21.0406 0.883036 21.4237 1.35714 21.4237H23.6429C24.117 21.4237 24.5 21.0406 24.5 20.5665V3.42367C24.5 2.94956 24.117 2.56653 23.6429 2.56653ZM22.5714 5.53439V19.4951H2.42857V5.53439L1.68929 4.95849L2.74196 3.60581L3.88839 4.49778H21.1143L22.2607 3.60581L23.3134 4.95849L22.5714 5.53439V5.53439ZM21.1143 4.4951L12.5 11.1915L3.88571 4.4951L2.73929 3.60314L1.68661 4.95581L2.42589 5.53171L11.5759 12.646C11.839 12.8504 12.1628 12.9614 12.496 12.9614C12.8292 12.9614 13.1529 12.8504 13.4161 12.646L22.5714 5.53439L23.3107 4.95849L22.258 3.60581L21.1143 4.4951Z" fill="#2C3E50"/>
</g>
<defs>
<clipPath id="clip0_1_1507">
<rect width="24" height="24" fill="white" transform="translate(0.5)"/>
</clipPath>
</defs>
</svg>
