<svg width="40" height="40" viewBox="0 0 40 40" fill="none" xmlns="http://www.w3.org/2000/svg">
<path d="M10.6417 32.6933C9.98947 32.6933 9.34058 32.58 8.69503 32.3533C8.05058 32.1267 7.48114 31.8122 6.98669 31.41C7.53781 31.0467 8.00669 30.5589 8.39336 29.9467C8.78003 29.3344 8.97392 28.5833 8.97503 27.6933C8.97503 26.7522 9.29558 25.9611 9.93669 25.32C10.5778 24.68 11.3684 24.36 12.3084 24.36C13.2484 24.36 14.0389 24.68 14.68 25.32C15.3211 25.96 15.6417 26.7511 15.6417 27.6933C15.6417 29.0778 15.1545 30.2572 14.18 31.2317C13.2056 32.2061 12.0261 32.6933 10.6417 32.6933ZM18.75 24.1667L15.8984 21.315L30.6984 6.51334L33.5517 9.365L18.75 24.1667Z" fill="#2C3E50"/>
</svg>
