<svg width="40" height="40" viewBox="0 0 40 40" fill="none" xmlns="http://www.w3.org/2000/svg">
<path d="M24.1667 30C23 30 22.0139 29.5972 21.2083 28.7917C20.4028 27.9861 20 27 20 25.8333C20 24.6667 20.4028 23.6806 21.2083 22.875C22.0139 22.0694 23 21.6667 24.1667 21.6667C25.3333 21.6667 26.3194 22.0694 27.125 22.875C27.9306 23.6806 28.3333 24.6667 28.3333 25.8333C28.3333 27 27.9306 27.9861 27.125 28.7917C26.3194 29.5972 25.3333 30 24.1667 30ZM8.33333 36.6667C7.41667 36.6667 6.63222 36.3406 5.98 35.6883C5.32778 35.0361 5.00111 34.2511 5 33.3333V10C5 9.08333 5.32667 8.29889 5.98 7.64667C6.63333 6.99444 7.41778 6.66778 8.33333 6.66667H10V3.33333H13.3333V6.66667H26.6667V3.33333H30V6.66667H31.6667C32.5833 6.66667 33.3683 6.99333 34.0217 7.64667C34.675 8.3 35.0011 9.08444 35 10V33.3333C35 34.25 34.6739 35.035 34.0217 35.6883C33.3694 36.3417 32.5844 36.6678 31.6667 36.6667H8.33333ZM8.33333 33.3333H31.6667V16.6667H8.33333V33.3333ZM8.33333 13.3333H31.6667V10H8.33333V13.3333Z" fill="#2C3E50"/>
</svg>
