<svg width="40" height="40" viewBox="0 0 40 40" fill="none" xmlns="http://www.w3.org/2000/svg">
<path d="M5.33331 23.7033V6.66668C5.33331 5.78262 5.6845 4.93478 6.30962 4.30965C6.93474 3.68453 7.78259 3.33334 8.66664 3.33334H31.3333C32.2174 3.33334 33.0652 3.68453 33.6903 4.30965C34.3155 4.93478 34.6666 5.78262 34.6666 6.66668V23.7033M5.33331 23.7033H34.6666M5.33331 23.7033L2.86664 32.4267C2.72655 32.9223 2.70321 33.4437 2.79847 33.9498C2.89373 34.456 3.105 34.9332 3.41568 35.344C3.72637 35.7548 4.12802 36.088 4.58913 36.3175C5.05024 36.547 5.55825 36.6665 6.07331 36.6667H33.9266C34.4417 36.6665 34.9497 36.547 35.4108 36.3175C35.8719 36.088 36.2736 35.7548 36.5843 35.344C36.895 34.9332 37.1062 34.456 37.2015 33.9498C37.2967 33.4437 37.2734 32.9223 37.1333 32.4267L34.6666 23.7033" stroke="#2C3E50" stroke-width="2.5"/>
<path d="M18.3333 31.6667H21.6666M23.3333 10L26.6666 13.3333L23.3333 16.6667M16.6666 10L13.3333 13.3333L16.6666 16.6667" stroke="#2C3E50" stroke-width="2.5" stroke-linecap="round" stroke-linejoin="round"/>
</svg>
