<svg width="40" height="40" viewBox="0 0 40 40" fill="none" xmlns="http://www.w3.org/2000/svg">
<path d="M6.66669 33.3333H33.3334M6.66669 33.3333V26.6667L20 13.3333L24.7817 8.55168L24.7834 8.55001C25.4417 7.89168 25.7717 7.56168 26.1517 7.43834C26.4864 7.32959 26.847 7.32959 27.1817 7.43834C27.5617 7.56168 27.89 7.89168 28.5484 8.54834L31.4484 11.4483C32.1084 12.1083 32.4384 12.4383 32.5617 12.8183C32.6704 13.1531 32.6704 13.5136 32.5617 13.8483C32.4384 14.2283 32.1084 14.5583 31.4484 15.2183L26.6667 20.0017L20 13.335M6.66669 33.3333H13.3334L26.6667 20" stroke="#2C3E50" stroke-width="3.33333" stroke-linecap="round" stroke-linejoin="round"/>
</svg>
