<svg width="25" height="24" viewBox="0 0 25 24" fill="none" xmlns="http://www.w3.org/2000/svg">
<g clip-path="url(#clip0_1_1517)">
<path d="M18.5 3C19.2956 3 20.0587 3.31607 20.6213 3.87868C21.1839 4.44129 21.5 5.20435 21.5 6V18C21.5 18.7956 21.1839 19.5587 20.6213 20.1213C20.0587 20.6839 19.2956 21 18.5 21H6.5C5.70435 21 4.94129 20.6839 4.37868 20.1213C3.81607 19.5587 3.5 18.7956 3.5 18V6C3.5 5.20435 3.81607 4.44129 4.37868 3.87868C4.94129 3.31607 5.70435 3 6.5 3H18.5ZM18.5 5H6.5C6.23478 5 5.98043 5.10536 5.79289 5.29289C5.60536 5.48043 5.5 5.73478 5.5 6V18C5.5 18.2652 5.60536 18.5196 5.79289 18.7071C5.98043 18.8946 6.23478 19 6.5 19H18.5C18.7652 19 19.0196 18.8946 19.2071 18.7071C19.3946 18.5196 19.5 18.2652 19.5 18V6C19.5 5.73478 19.3946 5.48043 19.2071 5.29289C19.0196 5.10536 18.7652 5 18.5 5ZM8.5 10C8.74493 10 8.98134 10.09 9.16437 10.2527C9.34741 10.4155 9.46434 10.6397 9.493 10.883L9.5 11V16C9.49972 16.2549 9.40212 16.5 9.22715 16.6854C9.05218 16.8707 8.81305 16.9822 8.55861 16.9972C8.30416 17.0121 8.05362 16.9293 7.85817 16.7657C7.66271 16.6021 7.5371 16.3701 7.507 16.117L7.5 16V11C7.5 10.7348 7.60536 10.4804 7.79289 10.2929C7.98043 10.1054 8.23478 10 8.5 10ZM11.5 9C11.7342 8.99996 11.961 9.08213 12.1408 9.23216C12.3206 9.3822 12.4421 9.59059 12.484 9.821C12.6854 9.70468 12.8934 9.60017 13.107 9.508C13.774 9.223 14.773 9.066 15.675 9.349C16.148 9.499 16.623 9.779 16.975 10.256C17.29 10.681 17.46 11.198 17.494 11.779L17.5 12V16C17.4997 16.2549 17.4021 16.5 17.2272 16.6854C17.0522 16.8707 16.813 16.9822 16.5586 16.9972C16.3042 17.0121 16.0536 16.9293 15.8582 16.7657C15.6627 16.6021 15.5371 16.3701 15.507 16.117L15.5 16V12C15.5 11.67 15.42 11.516 15.368 11.445C15.2933 11.3523 15.1904 11.2863 15.075 11.257C14.727 11.147 14.226 11.205 13.893 11.347C13.393 11.561 12.935 11.897 12.623 12.208L12.5 12.34V16C12.4997 16.2549 12.4021 16.5 12.2272 16.6854C12.0522 16.8707 11.813 16.9822 11.5586 16.9972C11.3042 17.0121 11.0536 16.9293 10.8582 16.7657C10.6627 16.6021 10.5371 16.3701 10.507 16.117L10.5 16V10C10.5 9.73478 10.6054 9.48043 10.7929 9.29289C10.9804 9.10536 11.2348 9 11.5 9ZM8.5 7C8.76522 7 9.01957 7.10536 9.20711 7.29289C9.39464 7.48043 9.5 7.73478 9.5 8C9.5 8.26522 9.39464 8.51957 9.20711 8.70711C9.01957 8.89464 8.76522 9 8.5 9C8.23478 9 7.98043 8.89464 7.79289 8.70711C7.60536 8.51957 7.5 8.26522 7.5 8C7.5 7.73478 7.60536 7.48043 7.79289 7.29289C7.98043 7.10536 8.23478 7 8.5 7Z" fill="#2C3E50"/>
</g>
<defs>
<clipPath id="clip0_1_1517">
<rect width="24" height="24" fill="white" transform="translate(0.5)"/>
</clipPath>
</defs>
</svg>
