<svg width="25" height="24" viewBox="0 0 25 24" fill="none" xmlns="http://www.w3.org/2000/svg">
<path d="M22.2799 4.68269L19.4272 1.83269C19.079 1.48448 18.6129 1.28894 18.1201 1.28894C17.6272 1.28894 17.1611 1.4818 16.8129 1.83269L13.7406 4.89966C13.3924 5.24787 13.1968 5.71662 13.1968 6.20948C13.1968 6.70501 13.3897 7.16841 13.7406 7.5193L16.1406 9.92198C15.5939 11.1959 14.8083 12.3533 13.8263 13.3318C12.8433 14.3202 11.6942 15.0997 10.4192 15.6514L8.01917 13.2488C7.67096 12.9005 7.20488 12.705 6.71203 12.705C6.46893 12.7041 6.22809 12.7517 6.00364 12.8451C5.77918 12.9385 5.57562 13.0757 5.40488 13.2488L2.32988 16.3157C1.98167 16.6639 1.78613 17.1327 1.78613 17.6255C1.78613 18.1211 1.97899 18.5845 2.32988 18.9354L5.17988 21.7854C5.77453 22.38 6.59417 22.7202 7.43524 22.7202C7.60935 22.7202 7.7781 22.7068 7.94953 22.6773C11.496 22.0934 15.0156 20.205 17.8576 17.3657C20.6968 14.5211 22.5826 11.0014 23.1718 7.45233C23.3406 6.44519 23.0031 5.40858 22.2799 4.68269V4.68269ZM21.2727 7.13358C20.7504 10.2916 19.0522 13.4416 16.4942 15.9997C13.9361 18.5577 10.7888 20.2559 7.63078 20.7782C7.23435 20.8452 6.8272 20.7113 6.53792 20.4247L3.73881 17.6255L6.70667 14.655L9.9156 17.8693L9.9397 17.8934L10.5183 17.6791C12.2725 17.0341 13.8656 16.0154 15.187 14.6935C16.5084 13.3717 17.5266 11.7783 18.171 10.0238L18.3852 9.44519L15.1495 6.21215L18.1174 3.24162L20.9165 6.04073C21.2058 6.33001 21.3397 6.73716 21.2727 7.13358Z" fill="#2C3E50"/>
</svg>
